<svg width="300" height="300" viewBox="0 0 300 300" xmlns="http://www.w3.org/2000/svg">
  <!-- Background -->
  <rect width="300" height="300" fill="#ffffff"/>
  
  <!-- MoMo Logo at the top -->
  <rect x="100" y="20" width="100" height="40" rx="5" fill="#ae2070"/>
  <text x="150" y="47" font-family="Arial" font-size="24" font-weight="bold" fill="white" text-anchor="middle">MoMo</text>
  
  <!-- QR Code (simplified representation) -->
  <rect x="50" y="80" width="200" height="200" fill="#ffffff" stroke="#000000" stroke-width="2"/>
  
  <!-- QR Code pattern (simplified) -->
  <!-- Position markers -->
  <rect x="70" y="100" width="30" height="30" fill="#000000"/>
  <rect x="75" y="105" width="20" height="20" fill="#ffffff"/>
  <rect x="80" y="110" width="10" height="10" fill="#000000"/>
  
  <rect x="200" y="100" width="30" height="30" fill="#000000"/>
  <rect x="205" y="105" width="20" height="20" fill="#ffffff"/>
  <rect x="210" y="110" width="10" height="10" fill="#000000"/>
  
  <rect x="70" y="230" width="30" height="30" fill="#000000"/>
  <rect x="75" y="235" width="20" height="20" fill="#ffffff"/>
  <rect x="80" y="240" width="10" height="10" fill="#000000"/>
  
  <!-- QR Code data pattern (simplified) -->
  <g fill="#000000">
    <!-- Row 1 -->
    <rect x="120" y="100" width="5" height="5"/>
    <rect x="130" y="100" width="5" height="5"/>
    <rect x="140" y="100" width="5" height="5"/>
    <rect x="155" y="100" width="5" height="5"/>
    <rect x="165" y="100" width="5" height="5"/>
    <rect x="175" y="100" width="5" height="5"/>
    
    <!-- Row 2 -->
    <rect x="110" y="110" width="5" height="5"/>
    <rect x="125" y="110" width="5" height="5"/>
    <rect x="145" y="110" width="5" height="5"/>
    <rect x="160" y="110" width="5" height="5"/>
    <rect x="170" y="110" width="5" height="5"/>
    <rect x="185" y="110" width="5" height="5"/>
    
    <!-- More QR pattern rows -->
    <!-- Row 3 -->
    <rect x="115" y="120" width="5" height="5"/>
    <rect x="130" y="120" width="5" height="5"/>
    <rect x="140" y="120" width="5" height="5"/>
    <rect x="150" y="120" width="5" height="5"/>
    <rect x="165" y="120" width="5" height="5"/>
    <rect x="180" y="120" width="5" height="5"/>
    
    <!-- Additional rows -->
    <!-- Middle section -->
    <rect x="120" y="150" width="5" height="5"/>
    <rect x="130" y="150" width="5" height="5"/>
    <rect x="140" y="150" width="5" height="5"/>
    <rect x="150" y="150" width="5" height="5"/>
    <rect x="160" y="150" width="5" height="5"/>
    <rect x="170" y="150" width="5" height="5"/>
    
    <!-- Bottom section -->
    <rect x="115" y="200" width="5" height="5"/>
    <rect x="125" y="200" width="5" height="5"/>
    <rect x="135" y="200" width="5" height="5"/>
    <rect x="145" y="200" width="5" height="5"/>
    <rect x="155" y="200" width="5" height="5"/>
    <rect x="165" y="200" width="5" height="5"/>
    <rect x="175" y="200" width="5" height="5"/>
    <rect x="185" y="200" width="5" height="5"/>
  </g>
  
  <!-- Text at the bottom -->
  <text x="150" y="290" font-family="Arial" font-size="12" fill="#ae2070" text-anchor="middle">Quét mã để thanh toán qua MoMo</text>
</svg>